Robin Hood Prince of Thieves 1991 720p BRRip H264 AAC-Rx(Phoenix-RG).mp4
      Format : MPEG-4 / AVC
      File size : 2.30 GiB
      Duration : 2h 35mn
      Bit rate : 1 800 Kbps
      Maximum bit rate : 13.6 Mbps
      Width : 1 280 pixels
      Height : 720 pixels
      Display aspect ratio : 16/9
      Frame rate mode : Constant
      Frame rate : 23.976 fps
      Resolution : 24 bits
      Colorimetry : 4:2:0
      Scan type : Progressive
      Bits/(Pixel*Frame) : 0.081
      Stream size : 1.95 GiB (85%)
     
      
AUDIO:
      Format : AAC / LC
      Duration : 2h 35mn
      Bit rate mode : Variable
      Bit rate : 323 Kbps
      Maximum bit rate : 413 Kbps
      Channel(s) : 6 channels
      Channel positions : Front: L C R, Rear: L R, LFE
      Sampling rate : 48.0 KHz
      Resolution : 16 bits
      Stream size : 358 MiB (15%)

SCREEN:
 
http://img715.imageshack.us/img715/2948/vlcsnap2010092807h02m18.jpg
 
http://img692.imageshack.us/img692/3562/vlcsnap2010092807h02m46.jpg
 
http://img444.imageshack.us/img444/3447/vlcsnap2010092807h01m19.jpg
 
http://img186.imageshack.us/img186/7457/vlcsnap2010092807h05m59.jpg
 
http://img827.imageshack.us/img827/2763/vlcsnap2010092807h01m36.jpg